<mxfile host="app.diagrams.net" agent="Mozilla/5.0 (Windows NT 10.0; Win64; x64) AppleWebKit/537.36 (KHTML, like Gecko) Chrome/131.0.0.0 Safari/537.36" version="26.0.4">
  <diagram name="Page-1" id="U_1GqmSC2GupasL8OtV2">
    <mxGraphModel dx="1320" dy="1846" grid="1" gridSize="10" guides="1" tooltips="1" connect="1" arrows="1" fold="1" page="1" pageScale="1" pageWidth="827" pageHeight="1169" math="0" shadow="0">
      <root>
        <mxCell id="0" />
        <mxCell id="1" parent="0" />
        <mxCell id="beFN461O62t-10zOpsx8-1" value="Uporabnik" style="swimlane;fontStyle=0;childLayout=stackLayout;horizontal=1;startSize=26;horizontalStack=0;resizeParent=1;resizeParentMax=0;resizeLast=0;collapsible=1;marginBottom=0;align=center;fontSize=14;labelBackgroundColor=default;" vertex="1" parent="1">
          <mxGeometry x="128" y="-860" width="160" height="80" as="geometry" />
        </mxCell>
        <mxCell id="beFN461O62t-10zOpsx8-5" value="Up. račun" style="swimlane;fontStyle=0;childLayout=stackLayout;horizontal=1;startSize=26;horizontalStack=0;resizeParent=1;resizeParentMax=0;resizeLast=0;collapsible=1;marginBottom=0;align=center;fontSize=14;labelBackgroundColor=default;" vertex="1" parent="1">
          <mxGeometry x="538" y="-848" width="160" height="56" as="geometry" />
        </mxCell>
        <mxCell id="beFN461O62t-10zOpsx8-6" value="Dogodek" style="swimlane;fontStyle=0;childLayout=stackLayout;horizontal=1;startSize=26;horizontalStack=0;resizeParent=1;resizeParentMax=0;resizeLast=0;collapsible=1;marginBottom=0;align=center;fontSize=14;labelBackgroundColor=default;" vertex="1" parent="1">
          <mxGeometry x="128" y="-610" width="160" height="56" as="geometry" />
        </mxCell>
        <mxCell id="beFN461O62t-10zOpsx8-7" value="Obvestilo" style="swimlane;fontStyle=0;childLayout=stackLayout;horizontal=1;startSize=26;horizontalStack=0;resizeParent=1;resizeParentMax=0;resizeLast=0;collapsible=1;marginBottom=0;align=center;fontSize=14;labelBackgroundColor=default;" vertex="1" parent="1">
          <mxGeometry x="538" y="-610" width="160" height="56" as="geometry" />
        </mxCell>
        <mxCell id="beFN461O62t-10zOpsx8-8" value="Komentar" style="swimlane;fontStyle=0;childLayout=stackLayout;horizontal=1;startSize=26;horizontalStack=0;resizeParent=1;resizeParentMax=0;resizeLast=0;collapsible=1;marginBottom=0;align=center;fontSize=14;labelBackgroundColor=default;" vertex="1" parent="1">
          <mxGeometry x="128" y="-450" width="160" height="56" as="geometry" />
        </mxCell>
        <mxCell id="beFN461O62t-10zOpsx8-9" value="" style="fontSize=12;html=1;endArrow=ERmandOne;startArrow=ERmandOne;rounded=0;entryX=0;entryY=0.5;entryDx=0;entryDy=0;exitX=1;exitY=0.5;exitDx=0;exitDy=0;labelBackgroundColor=default;fontColor=default;" edge="1" parent="1" source="beFN461O62t-10zOpsx8-1" target="beFN461O62t-10zOpsx8-5">
          <mxGeometry width="100" height="100" relative="1" as="geometry">
            <mxPoint x="448" y="-570" as="sourcePoint" />
            <mxPoint x="458" y="-750" as="targetPoint" />
          </mxGeometry>
        </mxCell>
        <mxCell id="beFN461O62t-10zOpsx8-10" value="avtentikacija" style="edgeLabel;html=1;align=center;verticalAlign=middle;resizable=0;points=[];labelBackgroundColor=default;" vertex="1" connectable="0" parent="beFN461O62t-10zOpsx8-9">
          <mxGeometry x="0.0014" y="-3" relative="1" as="geometry">
            <mxPoint as="offset" />
          </mxGeometry>
        </mxCell>
        <mxCell id="beFN461O62t-10zOpsx8-11" value="ustvari&lt;div&gt;račun&lt;/div&gt;" style="edgeLabel;html=1;align=left;verticalAlign=middle;resizable=0;points=[];labelBackgroundColor=default;" vertex="1" connectable="0" parent="beFN461O62t-10zOpsx8-9">
          <mxGeometry x="-0.8339" relative="1" as="geometry">
            <mxPoint as="offset" />
          </mxGeometry>
        </mxCell>
        <mxCell id="beFN461O62t-10zOpsx8-12" value="&lt;span style=&quot;color: light-dark(rgb(0, 0, 0), rgb(255, 255, 255));&quot;&gt;identificira/&lt;/span&gt;&lt;br&gt;&lt;div style=&quot;&quot;&gt;avtentizira&lt;/div&gt;" style="edgeLabel;html=1;align=right;verticalAlign=middle;resizable=0;points=[];labelBackgroundColor=default;" vertex="1" connectable="0" parent="beFN461O62t-10zOpsx8-9">
          <mxGeometry x="0.9168" relative="1" as="geometry">
            <mxPoint x="-9" as="offset" />
          </mxGeometry>
        </mxCell>
        <mxCell id="beFN461O62t-10zOpsx8-16" value="" style="fontSize=12;html=1;endArrow=ERzeroToMany;startArrow=ERmandOne;rounded=0;entryX=0.25;entryY=0;entryDx=0;entryDy=0;exitX=0.25;exitY=1;exitDx=0;exitDy=0;labelBackgroundColor=default;fontColor=default;" edge="1" parent="1" source="beFN461O62t-10zOpsx8-1" target="beFN461O62t-10zOpsx8-6">
          <mxGeometry width="100" height="100" relative="1" as="geometry">
            <mxPoint x="228" y="-660" as="sourcePoint" />
            <mxPoint x="548" y="-670" as="targetPoint" />
          </mxGeometry>
        </mxCell>
        <mxCell id="beFN461O62t-10zOpsx8-17" value="prireja" style="edgeLabel;html=1;align=center;verticalAlign=middle;resizable=0;points=[];labelBackgroundColor=default;" vertex="1" connectable="0" parent="beFN461O62t-10zOpsx8-16">
          <mxGeometry x="0.009" relative="1" as="geometry">
            <mxPoint as="offset" />
          </mxGeometry>
        </mxCell>
        <mxCell id="beFN461O62t-10zOpsx8-22" value="ima prireditelja" style="edgeLabel;html=1;align=center;verticalAlign=middle;resizable=0;points=[];labelBackgroundColor=default;" vertex="1" connectable="0" parent="beFN461O62t-10zOpsx8-16">
          <mxGeometry x="0.5836" relative="1" as="geometry">
            <mxPoint as="offset" />
          </mxGeometry>
        </mxCell>
        <mxCell id="beFN461O62t-10zOpsx8-23" value="ustvari" style="edgeLabel;html=1;align=center;verticalAlign=middle;resizable=0;points=[];labelBackgroundColor=default;" vertex="1" connectable="0" parent="beFN461O62t-10zOpsx8-16">
          <mxGeometry x="-0.7032" relative="1" as="geometry">
            <mxPoint as="offset" />
          </mxGeometry>
        </mxCell>
        <mxCell id="beFN461O62t-10zOpsx8-18" value="" style="fontSize=12;html=1;endArrow=ERzeroToMany;endFill=1;startArrow=ERzeroToMany;rounded=0;exitX=0.75;exitY=0;exitDx=0;exitDy=0;entryX=0.75;entryY=1;entryDx=0;entryDy=0;labelBackgroundColor=default;fontColor=default;" edge="1" parent="1" source="beFN461O62t-10zOpsx8-6" target="beFN461O62t-10zOpsx8-1">
          <mxGeometry width="100" height="100" relative="1" as="geometry">
            <mxPoint x="448" y="-570" as="sourcePoint" />
            <mxPoint x="548" y="-670" as="targetPoint" />
          </mxGeometry>
        </mxCell>
        <mxCell id="beFN461O62t-10zOpsx8-19" value="udeležba" style="edgeLabel;html=1;align=center;verticalAlign=middle;resizable=0;points=[];labelBackgroundColor=default;" vertex="1" connectable="0" parent="beFN461O62t-10zOpsx8-18">
          <mxGeometry x="-0.0016" relative="1" as="geometry">
            <mxPoint as="offset" />
          </mxGeometry>
        </mxCell>
        <mxCell id="beFN461O62t-10zOpsx8-20" value="udeležen" style="edgeLabel;html=1;align=center;verticalAlign=middle;resizable=0;points=[];labelBackgroundColor=default;" vertex="1" connectable="0" parent="beFN461O62t-10zOpsx8-18">
          <mxGeometry x="0.726" y="1" relative="1" as="geometry">
            <mxPoint x="1" y="12" as="offset" />
          </mxGeometry>
        </mxCell>
        <mxCell id="beFN461O62t-10zOpsx8-21" value="ima udeležence" style="edgeLabel;html=1;align=center;verticalAlign=middle;resizable=0;points=[];labelBackgroundColor=default;" vertex="1" connectable="0" parent="beFN461O62t-10zOpsx8-18">
          <mxGeometry x="-0.5372" y="1" relative="1" as="geometry">
            <mxPoint as="offset" />
          </mxGeometry>
        </mxCell>
        <mxCell id="beFN461O62t-10zOpsx8-24" value="" style="edgeStyle=entityRelationEdgeStyle;fontSize=12;html=1;endArrow=ERoneToMany;startArrow=ERmandOne;rounded=0;exitX=1;exitY=0.5;exitDx=0;exitDy=0;entryX=0;entryY=0.5;entryDx=0;entryDy=0;labelBackgroundColor=default;fontColor=default;" edge="1" parent="1" source="beFN461O62t-10zOpsx8-6" target="beFN461O62t-10zOpsx8-7">
          <mxGeometry width="100" height="100" relative="1" as="geometry">
            <mxPoint x="348" y="-580" as="sourcePoint" />
            <mxPoint x="448" y="-680" as="targetPoint" />
          </mxGeometry>
        </mxCell>
        <mxCell id="beFN461O62t-10zOpsx8-25" value="obveščanje" style="edgeLabel;html=1;align=center;verticalAlign=middle;resizable=0;points=[];labelBackgroundColor=default;" vertex="1" connectable="0" parent="beFN461O62t-10zOpsx8-24">
          <mxGeometry x="-0.0056" y="-1" relative="1" as="geometry">
            <mxPoint as="offset" />
          </mxGeometry>
        </mxCell>
        <mxCell id="beFN461O62t-10zOpsx8-26" value="obvesti&lt;br&gt;udeležence" style="edgeLabel;html=1;align=center;verticalAlign=middle;resizable=0;points=[];labelBackgroundColor=default;" vertex="1" connectable="0" parent="beFN461O62t-10zOpsx8-24">
          <mxGeometry x="-0.8361" y="2" relative="1" as="geometry">
            <mxPoint x="20" y="4" as="offset" />
          </mxGeometry>
        </mxCell>
        <mxCell id="beFN461O62t-10zOpsx8-27" value="razposlano&lt;div&gt;udeležencem&lt;/div&gt;" style="edgeLabel;html=1;align=center;verticalAlign=middle;resizable=0;points=[];labelBackgroundColor=default;" vertex="1" connectable="0" parent="beFN461O62t-10zOpsx8-24">
          <mxGeometry x="0.5554" relative="1" as="geometry">
            <mxPoint x="6" as="offset" />
          </mxGeometry>
        </mxCell>
        <mxCell id="beFN461O62t-10zOpsx8-28" value="" style="fontSize=12;html=1;endArrow=ERzeroToMany;startArrow=ERmandOne;rounded=0;exitX=0.5;exitY=1;exitDx=0;exitDy=0;entryX=0.5;entryY=0;entryDx=0;entryDy=0;labelBackgroundColor=default;fontColor=default;" edge="1" parent="1" source="beFN461O62t-10zOpsx8-6" target="beFN461O62t-10zOpsx8-8">
          <mxGeometry width="100" height="100" relative="1" as="geometry">
            <mxPoint x="468" y="-470" as="sourcePoint" />
            <mxPoint x="568" y="-570" as="targetPoint" />
          </mxGeometry>
        </mxCell>
        <mxCell id="beFN461O62t-10zOpsx8-30" value="komentarji" style="edgeLabel;html=1;align=center;verticalAlign=middle;resizable=0;points=[];labelBackgroundColor=default;" vertex="1" connectable="0" parent="beFN461O62t-10zOpsx8-28">
          <mxGeometry x="-0.0375" y="-1" relative="1" as="geometry">
            <mxPoint as="offset" />
          </mxGeometry>
        </mxCell>
        <mxCell id="beFN461O62t-10zOpsx8-31" value="ima komentar" style="edgeLabel;html=1;align=center;verticalAlign=middle;resizable=0;points=[];labelBackgroundColor=default;" vertex="1" connectable="0" parent="beFN461O62t-10zOpsx8-28">
          <mxGeometry x="0.4163" relative="1" as="geometry">
            <mxPoint as="offset" />
          </mxGeometry>
        </mxCell>
        <mxCell id="beFN461O62t-10zOpsx8-32" value="komentira dogodek" style="edgeLabel;html=1;align=center;verticalAlign=middle;resizable=0;points=[];labelBackgroundColor=default;" vertex="1" connectable="0" parent="beFN461O62t-10zOpsx8-28">
          <mxGeometry x="-0.5393" relative="1" as="geometry">
            <mxPoint as="offset" />
          </mxGeometry>
        </mxCell>
        <mxCell id="beFN461O62t-10zOpsx8-33" value="" style="edgeStyle=orthogonalEdgeStyle;fontSize=12;html=1;endArrow=ERzeroToMany;startArrow=ERzeroToOne;rounded=0;exitX=0.75;exitY=1;exitDx=0;exitDy=0;labelBackgroundColor=default;fontColor=default;elbow=vertical;entryX=1;entryY=0.5;entryDx=0;entryDy=0;curved=1;strokeColor=default;" edge="1" parent="1">
          <mxGeometry width="100" height="100" relative="1" as="geometry">
            <mxPoint x="248" y="-392" as="sourcePoint" />
            <mxPoint x="288" y="-420" as="targetPoint" />
            <Array as="points">
              <mxPoint x="248" y="-340" />
              <mxPoint x="338" y="-340" />
              <mxPoint x="338" y="-420" />
            </Array>
          </mxGeometry>
        </mxCell>
        <mxCell id="beFN461O62t-10zOpsx8-35" value="replika" style="edgeLabel;html=1;align=center;verticalAlign=middle;resizable=0;points=[];labelBackgroundColor=default;" vertex="1" connectable="0" parent="beFN461O62t-10zOpsx8-33">
          <mxGeometry x="-0.0945" y="5" relative="1" as="geometry">
            <mxPoint as="offset" />
          </mxGeometry>
        </mxCell>
        <mxCell id="beFN461O62t-10zOpsx8-36" value="je&lt;div&gt;replika&lt;/div&gt;" style="edgeLabel;html=1;align=center;verticalAlign=middle;resizable=0;points=[];labelBackgroundColor=default;" vertex="1" connectable="0" parent="beFN461O62t-10zOpsx8-33">
          <mxGeometry x="0.8025" y="4" relative="1" as="geometry">
            <mxPoint x="13" as="offset" />
          </mxGeometry>
        </mxCell>
        <mxCell id="beFN461O62t-10zOpsx8-37" value="ima&lt;div&gt;repliko&lt;/div&gt;" style="edgeLabel;html=1;align=center;verticalAlign=middle;resizable=0;points=[];labelBackgroundColor=default;" vertex="1" connectable="0" parent="beFN461O62t-10zOpsx8-33">
          <mxGeometry x="-0.7903" y="5" relative="1" as="geometry">
            <mxPoint y="4" as="offset" />
          </mxGeometry>
        </mxCell>
      </root>
    </mxGraphModel>
  </diagram>
</mxfile>
